<?xml version="1.0" encoding="UTF-8"?>
<svg width="100px" height="100px" viewBox="0 0 100 100" version="1.1" xmlns="http://www.w3.org/2000/svg" xmlns:xlink="http://www.w3.org/1999/xlink">
    <title>logo-amazon</title>
    <g id="logo-amazon" stroke="none" stroke-width="1" fill="none" fill-rule="evenodd">
        <g id="amazon-icon-1" transform="translate(3.000000, 1.000000)" fill-rule="nonzero">
            <path d="M83.3283323,80.5912936 C42.9205644,99.8219891 17.8430586,83.7322214 1.79015266,73.9596353 C0.796805436,73.343737 -0.891539274,74.1036265 0.573331108,75.7862115 C5.92135593,82.2708068 23.4479637,97.9005706 46.3252841,97.9005706 C69.2183475,97.9005706 82.8376103,85.4090468 84.5413141,83.2299801 C86.2334986,81.0693443 85.0381797,79.8774812 83.3279483,80.5912936 L83.3283323,80.5912936 Z M94.676758,74.324029 C93.5916404,72.9109954 88.0785057,72.6475876 84.608894,73.0738015 C81.1339066,73.4877282 75.9179697,75.6115022 76.3714459,76.8866882 C76.6041357,77.364355 77.0791146,77.1500961 79.4662966,76.9354532 C81.8600061,76.6966198 88.5657719,75.8503356 89.9630624,77.6769119 C91.3668805,79.5161593 87.8243133,88.2777353 87.1773128,89.6907689 C86.5521991,91.1038024 87.4161462,91.4681961 88.5903464,90.5270697 C89.7484195,89.5863273 91.8449313,87.1499963 93.2518212,83.7022712 C94.6491117,80.2357313 95.5011556,75.3999312 94.6763741,74.324029 L94.676758,74.324029 Z" id="Shape" fill="#FF9900"></path>
            <path d="M69.2194995,72.9202109 C68.3632318,73.6850921 67.1245236,73.7400007 66.1592067,73.2296959 C61.8602057,69.6594824 61.0949405,68.0018558 58.7269574,64.5952162 C51.622624,71.8454606 46.5948356,74.013008 37.3774795,74.013008 C26.4840659,74.013008 17.9951133,67.2911153 17.9951133,53.8292828 C17.9951133,43.3186938 23.6971644,36.1594518 31.8029085,32.6621938 C38.8346703,29.5650393 48.6533337,29.0186407 56.1585385,28.1627571 L56.1585385,26.4866996 C56.1585385,23.4079759 56.395068,19.7648068 54.5919143,17.1053855 C53.0068593,14.7189715 49.9830443,13.7352237 47.323239,13.7352237 C42.386837,13.7352237 37.9784027,16.2671648 36.9036525,21.5134358 C36.6847859,22.6795725 35.8289022,23.8272783 34.6631496,23.881803 L22.0936785,22.5340454 C21.0373592,22.2967479 19.8716065,21.4408643 20.1630446,19.8193315 C23.0593795,4.59082314 36.8122661,5.45663438e-15 49.1263927,5.45663438e-15 C55.4293671,5.45663438e-15 63.6629754,1.67605746 68.6362391,6.44888547 C74.9392135,12.3325575 74.3379063,20.1837252 74.3379063,28.7272025 L74.3379063,48.9109277 C74.3379063,54.9769886 76.8518005,57.6364099 79.2197837,60.9155693 C80.0576204,62.081322 80.2400092,63.4843721 79.1833059,64.3583027 C76.5419315,66.5623278 71.842059,70.6612771 69.2555933,72.9566886 L69.2191155,72.9202109" id="Shape" fill="#000000"></path>
            <path d="M56.1585385,41.3511982 C56.1585385,46.3970335 56.2860187,50.6050321 53.7356467,55.0860379 C51.6771487,58.729591 48.4164202,60.970094 44.773251,60.970094 C39.7999873,60.970094 36.9036525,57.1810138 36.9036525,51.5887799 C36.9036525,40.5494553 46.7948874,38.5458658 56.1585385,38.5458658 L56.1585385,41.3511982 Z" id="Path" fill="#FFFFFF"></path>
        </g>
    </g>
</svg>