<?xml version="1.0" encoding="UTF-8"?>
<svg width="64px" height="64px" viewBox="0 0 64 64" version="1.1" xmlns="http://www.w3.org/2000/svg" xmlns:xlink="http://www.w3.org/1999/xlink">
    <title>Artboard</title>
    <g id="Artboard" stroke="none" stroke-width="1" fill="none" fill-rule="evenodd">
        <g id="apple-black" transform="translate(7.000000, 0.564551)" fill="#000000" fill-rule="nonzero">
            <path d="M40.9233048,32.8428307 C41.0078713,42.0741676 48.9124247,45.146088 49,45.1851909 C48.9331634,45.4017274 47.7369821,49.5628653 44.835501,53.8610269 C42.3271952,57.5771105 39.7241148,61.2793611 35.6233362,61.356042 C31.5939073,61.431307 30.2982233,58.9340578 25.6914424,58.9340578 C21.0860585,58.9340578 19.6464932,61.27947 15.8321878,61.4314159 C11.8738936,61.5833617 8.85958554,57.4131833 6.33064852,53.7107148 C1.16284874,46.1373849 -2.78641926,32.3103122 2.51645059,22.9768066 C5.15080028,18.3417501 9.85858819,15.4066355 14.9684701,15.3313705 C18.8554146,15.2562145 22.5241194,17.9820905 24.9003639,17.9820905 C27.275104,17.9820905 31.733383,14.7039812 36.4203248,15.1854154 C38.3824403,15.2681959 43.8902255,15.9888223 47.4267616,21.2362369 C47.1417927,21.4153043 40.8549638,25.1251794 40.9233048,32.8428307 M33.3504628,10.1750144 C35.4519466,7.59650964 36.8663676,4.00699306 36.4804992,0.435448578 C33.4513624,0.558856931 29.7884601,2.48154382 27.6157341,5.05863265 C25.6685547,7.34076135 23.9632549,10.9934525 24.4233742,14.4943068 C27.7996959,14.7590956 31.2488715,12.7551531 33.3504628,10.1750144" id="Shape"></path>
        </g>
    </g>
</svg>