<?xml version="1.0" encoding="UTF-8"?>
<svg width="100px" height="100px" viewBox="0 0 100 100" version="1.1" xmlns="http://www.w3.org/2000/svg" xmlns:xlink="http://www.w3.org/1999/xlink">
    <title>logo-zoom</title>
    <g id="logo-zoom" stroke="none" stroke-width="1" fill="none" fill-rule="evenodd">
        <g id="zoom-5" transform="translate(2.000000, 2.000000)" fill-rule="nonzero">
            <circle id="Oval" fill="#4A8CFF" cx="48" cy="48" r="48"></circle>
            <path d="M17.2023709,32.9720576 L17.2023709,55.5292125 C17.2270071,60.6237171 21.3745701,64.734898 26.469094,64.7147231 L59.3497036,64.7147231 C60.2751835,64.7191547 61.0296981,63.9737307 61.0364098,63.0482642 L61.0364098,40.4911092 C61.0117736,35.3966046 56.8642106,31.2854238 51.7696867,31.3055729 L18.8992379,31.3055729 C18.4529968,31.3007991 18.0231832,31.4738224 17.7047773,31.7865085 C17.3863714,32.0991945 17.2055859,32.5258014 17.2023709,32.9720576 L17.2023709,32.9720576 Z M63.1295512,41.7713802 L76.7044877,31.8543607 C77.8831499,30.876884 78.7976291,31.1227773 78.7976291,32.8907705 L78.7976291,63.1295512 C78.7976291,65.1414056 77.6799323,64.8975445 76.7044877,64.1639289 L63.1295512,54.2692633 L63.1295512,41.7713802 Z" id="Shape" fill="#FFFFFF"></path>
        </g>
    </g>
</svg>