<?xml version="1.0" encoding="UTF-8"?>
<svg width="352px" height="92px" viewBox="0 0 352 92" version="1.1" xmlns="http://www.w3.org/2000/svg" xmlns:xlink="http://www.w3.org/1999/xlink">
    <title>Logos</title>
    <g id="Logos" stroke="none" stroke-width="1" fill="none" fill-rule="evenodd">
        <g id="logo-mailchimp" transform="translate(26.000000, -22.000000)">
            <polygon id="Path" points="0 0.0935 300 0.0935 300 150.0935 0 150.0935"></polygon>
            <path d="M242.4395,88.8035 L242.509,88.8045 C246.6405,88.8045 249.548,85.942 249.5798,81.8455 C249.595,79.817 249.009,77.96 247.9295,76.6185 C246.788,75.1985 245.19,74.4415 243.3075,74.4265 L243.27,74.4265 C240.7295,74.4265 238.3705,76.354 236.058,80.32 L235.874,80.6365 L235.756,80.2915 C235.172,78.592 234.652,77.176 234.341,76.3285 C234.123,75.7375 234.027,75.472 234.004,75.386 C233.893,74.957 233.5265,74.6905 233.0455,74.6905 C232.75,74.6905 232.436,74.791 232.139,74.98 C231.8445,75.1675 231.68,75.3965 231.621,75.7025 L231.606,75.7485 C229.2915,82.967 227.3835,86.4715 225.7665,86.4715 C225.5315,86.4695 225.3475,86.393 225.2105,86.24 C224.787,85.772 224.891,84.659 225.035,83.118 C225.1405,81.986 225.261,80.7045 225.211,79.3445 C225.116,76.73 223.685,75.16 221.3855,75.143 C218.4625,75.142 216.5685,78.255 215.696,80.1105 L215.4355,80.6635 L215.378,80.0535 C215.16,77.7575 214.3895,75.015 211.9565,74.997 C209.1185,74.997 206.9565,78.327 205.6375,81.122 L205.284,81.871 L205.319,81.044 C205.4755,77.3165 205.604,75.1155 205.7015,74.505 C205.7975,73.8925 205.747,73.4815 205.5465,73.246 C205.3565,73.0255 204.9985,72.944 204.4735,72.977 C203.565,73.0345 203.1005,73.5875 202.401,75.441 C201.252,78.485 198.3295,85.567 195.996,85.567 C195.533,85.5635 195.1665,85.406 194.898,85.0975 C193.9195,83.976 194.311,80.943 194.8525,76.7465 L194.8935,76.429 C195.15,74.442 194.713,74.018 193.6335,73.8195 C193.52533,73.7991415 193.415565,73.7884328 193.3055,73.7875 C192.4435,73.7875 192.0405,74.613 191.2355,76.907 C189.803,80.989 187.9605,85.282 185.8065,85.282 C185.7275,85.282 185.65,85.276 185.5705,85.2635 C184.429,85.069 184.454,83.376 184.4855,81.2305 C184.5015,80.0705 184.521,78.755 184.3425,77.5675 C184.0205,75.4365 182.7655,74.106 181.065,74.0925 C177.673,74.0925 175.3855,78.4365 174.3215,81.0265 L174.0805,81.6125 L174,80.9835 C173.791028,79.3210129 173.653734,77.650299 173.5885,75.976 L173.5855,75.9135 L173.624,75.8645 C179.9725,67.873 182.8215,62.106 182.8595,57.165 C182.884,54.0085 181.4275,52.1125 178.964,52.093 C177.1625,52.093 172.8795,53.5935 171.391,67.4915 C171.112862,70.1005829 170.962682,72.7217232 170.941,75.3455 L170.94,75.3975 L170.9105,75.4395 C168.006,79.6435 161.807,86.875 155.738,86.875 C150.2545,86.875 145.8795,82.4385 145.8795,74.6075 C145.8795,64.1095 153.31,57.664 158.902,57.664 L158.9485,57.664 C160.1635,57.673 161.2055,58.0125 161.9615,58.6455 C162.7465,59.3025 163.158,60.2235 163.1495,61.3085 C163.1385,62.758 162.666,63.503 162.2095,64.2225 C162.093,64.408 161.9755,64.592 161.8685,64.787 C161.7605,64.984 161.662,65.2695 161.8055,65.514 C161.9525,65.7645 162.328,65.922 162.7855,65.9255 C164.1165,65.9255 166.1295,63.9985 166.1515,61.0955 C166.1745,58.057 163.615,54.926 159.0485,54.926 C152.138,54.926 142.8305,62.518 142.8305,74.822 C142.8305,83.5255 148.2875,89.541 155.6795,89.541 C160.925,89.541 166.114,85.785 170.7095,79.5115 L170.991,79.1315 L171.011,79.6035 C171.1085,81.9 171.275,83.709 171.3965,85.0305 C171.475,85.88 171.532,86.4935 171.53,86.832 C171.524,87.5735 171.6445,88.0895 171.901,88.4055 C172.1565,88.722 172.5625,88.8715 173.1785,88.8755 C174.2105,88.8755 174.4175,88.172 174.826,86.436 L174.9435,85.9405 C175.4515,83.837 177.3275,76.971 180.149,76.971 C180.61,76.9755 180.9655,77.1115 181.218,77.379 C181.841,78.04 181.773,79.3965 181.694,80.968 C181.644,81.9485 181.594,82.961 181.692,83.9475 C181.9575,86.6105 183.1075,87.913 185.207,87.928 C187.363,87.929 189.613,85.6065 190.8005,83.4485 L191.0245,83.042 L191.112,83.499 C191.331,84.654 192.311,88.445 195.3795,88.445 C198.1605,88.445 200.5465,85.5165 203.1615,79.489 L203.504,78.702 L203.483,79.5605 C203.4275,81.8445 203.304,84.6335 203.303,86.79 C203.302,88.458 203.4705,89.0945 204.2415,89.0945 L204.4165,89.1025 C205.156,89.1025 205.658,88.661 205.9085,87.788 C207.8765,80.9295 209.577,77.7355 211.262,77.7355 C212.912,77.748 213.0665,80.765 213.199,86.096 L213.208,86.47 C213.248,88.3345 213.3155,89.1595 214.4735,89.168 C215.3525,89.168 215.571,88.4775 216.0255,86.7775 C216.1125,86.4535 216.2065,86.098 216.318,85.714 C217.907,80.2015 219.224,77.9525 220.864,77.9525 C222.268,77.963 222.346,79.4105 222.372,79.886 C222.426,80.9045 222.321,81.971 222.22,83.0005 C222.1255,83.9575 222.0285,84.9475 222.065,85.867 C222.151,88.023 223.331,89.2195 225.389,89.235 C228.06,89.235 230.471,86.111 232.5825,79.952 L232.729,79.523 L232.8965,79.9455 C233.28,80.9135 233.779,82.224 234.2405,83.7875 L234.258,83.847 L234.2325,83.9035 C232.1875,88.4435 230.745,93.5005 230.7245,96.2025 C230.697,99.761 232.307,102.0735 234.8265,102.093 L234.87,102.093 C236.2405,102.093 239.435,101.5425 239.497,96.4505 C239.5225,94.3635 239.029,91.4125 238.0325,87.678 L237.918,87.2505 L238.2855,87.4955 C239.562,88.34 240.9965,88.7915 242.4395,88.8035 L242.4395,88.8035 Z M173.596,71.534 C173.653,70.258 173.7605,69.0155 173.913,67.8405 C174.902,60.2695 176.965,54.9825 178.9325,54.9825 L178.9415,54.9825 C179.8795,54.9895 180.3485,55.699 180.339,57.09 C180.312,60.5085 178.146,65.4025 173.902,71.636 L173.57,72.124 L173.596,71.534 L173.596,71.534 Z M236.3325,98.7525 C236.0195,99.1695 235.5835,99.381 235.0375,99.381 C234.4105,99.3755 233.9395,99.1575 233.619,98.729 C232.721,97.5295 232.974,94.7095 234.439,89.591 C234.6145,88.979 234.804,88.3645 235.005,87.763 L235.175,87.2525 L235.3245,87.769 C237.031,93.6775 237.37,97.3725 236.3325,98.7525 Z M236.8635,83.615 L236.8325,83.5585 L236.7705,83.362 L236.7995,83.3035 C238.7455,79.2935 240.9755,76.995 242.9155,76.995 L242.9355,76.995 C245.1265,77.0115 246.6415,78.9835 246.6205,81.788 C246.606,83.66 245.7805,84.738 245.0915,85.3125 C244.305,85.9685 243.2575,86.3435 242.2175,86.3435 C239.6535,86.324 237.8935,84.8485 236.8635,83.615 Z M112.746,88.1405 C115.75,87.9005 118.133,83.815 119.018,82.069 L119.246,81.619 L119.3325,82.116 C119.7575,84.571 121.093,88.696 125.2705,88.729 L125.3055,88.729 C127.1125,88.729 129.1625,87.6235 131.2345,85.533 L131.3865,85.3795 L131.497,85.564 C132.892,87.897 134.763,89.1365 136.755,89.0345 C139.6875,88.882 141.4675,86.804 141.624,85.3605 C141.664,84.9925 141.567,84.646 141.3565,84.4125 C141.093,84.1185 140.71,84.0845 140.429,84.354 L140.2945,84.481 C139.612,85.1365 138.34,86.358 136.954,86.43 C135.257,86.513 134.002,85.4985 133.191,83.4045 L133.1575,83.3165 L133.2145,83.2425 C137.881,77.139 141.1555,67.826 140.832,61.5795 C140.683,58.6885 139.8425,55.242 136.685,55.242 L136.4495,55.248 C135.24,55.3105 134.14,55.887 133.1805,56.9605 C130.251,60.238 128.718,68.305 129.2745,77.5125 C129.3895,79.4255 129.722,81.2135 130.2615,82.825 L130.292,82.9155 L130.2305,82.9885 C128.499,85.012 126.7905,86.1265 125.4195,86.1265 C122.121,86.1265 122.232,80.5955 122.4925,76.0095 C122.549,75.0205 122.6325,74.3905 122.34,74.0325 C122.131,73.776 121.781,73.6495 121.271,73.6455 L121.2115,73.645 C120.0375,73.645 119.792,73.8865 119.1915,75.6285 C117.942,79.2475 115.4755,85.321 112.9945,85.321 C112.307,85.3145 111.782,85.08 111.4225,84.622 C110.219,83.086 111.133,79.255 111.867,76.1755 C111.999,75.622 112.1255,75.0905 112.234,74.5985 C112.3945,73.8685 112.3455,73.336 112.0875,73.0135 C111.8285,72.692 111.312,72.562 110.6305,72.616 C109.568,72.701 108.8885,73.146 108.56,75.1665 L108.494,75.5865 L108.247,75.2875 C107.783,74.6025 106.8785,73.7865 105.199,73.7865 C105.052,73.7865 104.8995,73.7925 104.742,73.805 C102.95,73.952 100.9095,75.2005 99.416,77.064 C97.6725,79.2395 96.8395,81.993 97.0715,84.8185 C97.0835,84.968 97.105,85.1115 97.1265,85.254 L97.1385,85.3325 L97.0845,85.392 C96.0415,86.528 94.9785,87.105 93.9255,87.105 C92.3,87.093 91.3675,85.885 91.3675,83.8725 C91.3675,80.4855 93.663,70.274 93.663,66.5775 C93.663,62.6435 91.91,60.502 88.866,60.4785 L88.82,60.4785 C84.375,60.4785 80.911,65.522 77.596,75.899 C77.2811072,76.8951537 76.9754274,77.8941964 76.679,78.896 L76.2135,80.4565 L76.351,78.8345 C76.6508581,75.356021 76.8604286,71.8703485 76.9795,68.381 C77.1445,63.366 76.467,60.1385 74.9065,58.5145 C74.065,57.6385 72.952,57.207 71.502,57.196 L71.465,57.196 C66.026,57.196 63.4205,66.369 61.523,72.8415 C60.9505,74.7955 59.822,79.203 59.0685,82.216 L59.515,81.4905 C59.8495,77.6965 60.819,68.193 60.7555,63.037 C60.6865,57.506 58.8455,55.0265 54.783,54.9955 L54.733,54.9955 C52.563,54.9955 51.0575,56.074 50.177,56.9785 C48.763,58.4305 47.882,60.5525 47.931,62.385 C47.961,63.499 48.6445,64.4905 49.1625,64.4905 C49.5,64.4905 49.687,64.04 49.768,63.7715 C51.025,59.617 52.6515,57.597 54.7385,57.597 C55.604,57.6035 56.2485,57.8585 56.7305,58.377 C58.3615,60.1265 58.0645,64.8505 57.527,73.427 C57.353,76.191 57.157,79.3225 56.9915,82.885 C56.9626268,83.4728064 56.928292,84.0603317 56.8885,84.6475 C56.73,87.121 56.604,89.076 57.5425,89.2215 C58.7635,89.412 59.558,88.916 59.965,87.708 C60.568,85.915 61.9205,81.0145 64.5375,72.06 C67.0485,63.467 68.9455,60.3405 71.3725,60.3405 C74.1765,60.3405 74.3855,65.155 73.8715,75.315 C73.762,77.469 73.6155,79.9085 73.503,82.563 C73.4875,82.936 73.47,83.298 73.452,83.646 C73.344,85.8445 73.259,87.578 73.887,88.243 C74.083,88.45 74.349,88.5525 74.7015,88.5545 C75.917,88.5545 76.2825,87.489 76.888,85.7225 C76.995,85.411 77.1085,85.078 77.235,84.73 C81.4,73.2405 84.4795,63.272 88.613,63.272 C89.8525,63.272 90.8175,64.279 90.8175,66.243 C90.8175,70.7765 88.6005,79.536 88.6005,83.978 C88.6005,85.5695 89.0585,86.9975 89.9235,88.0015 C90.8115,89.0325 92.054,89.5815 93.5165,89.594 L93.5485,89.594 C94.9315,89.594 96.372,88.922 97.832,87.597 L97.969,87.473 L98.079,87.6215 C99.0405,88.9135 100.5915,89.608 102.2665,89.479 C104.8355,89.279 106.991,86.9915 107.793,84.8345 L107.95,84.4125 L108.1065,84.8345 C108.7025,86.435 109.9915,88.364 112.746,88.1405 L112.746,88.1405 Z M136.418,58.1195 L136.462,58.1185 C136.7555,58.1185 137.0135,58.2655 137.2275,58.5565 C138.2475,59.9355 138.263,64.969 136.5085,70.696 C135.506,73.969 134.1575,77.061 132.6105,79.6365 L132.3635,80.0465 L132.3005,79.572 C132.1185,78.187 132.0285,76.745 131.9655,75.518 C131.518,66.8615 134.1365,58.238 136.418,58.1195 L136.418,58.1195 Z M107.914,78.351 C107.015,81.9685 105.291,86.3355 102.1825,86.5855 L101.9295,86.596 C100.64,86.596 99.917,85.752 99.7805,84.086 C99.6095,82.002 100.508,79.5615 102.069,77.867 C103.0625,76.788 104.1835,76.194 105.225,76.194 L105.246,76.194 C106.5605,76.204 107.482,77.2595 107.9055,78.244 L107.928,78.295 L107.914,78.351 L107.914,78.351 Z M122.3315,65.0885 C121.184,65.0885 120.2575,65.9925 120.2485,67.104 C120.2395,68.2235 121.1605,69.1415 122.3005,69.15 L122.317,69.3165 L122.317,69.15 C123.448,69.15 124.374,68.2465 124.383,67.1355 C124.392,66.0155 123.4715,65.0975 122.3315,65.0885 Z M194.478,65.0885 C193.3305,65.0885 192.4045,65.9925 192.395,67.104 C192.386,68.2235 193.3065,69.1415 194.447,69.15 L194.463,69.3165 L194.463,69.15 C195.595,69.15 196.521,68.2465 196.53,67.1355 C196.538,66.0155 195.618,65.0975 194.478,65.0885 Z" id="Shape" fill="#707780" fill-rule="nonzero"></path>
            <path d="M250.6615,86.5115 C249.883512,86.5128775 249.253326,87.143511 249.2525,87.9215 C249.254153,88.6987407 249.884258,89.3281752 250.6615,89.329 C251.438823,89.328176 252.069072,88.6988215 252.071,87.9215 C252.070449,87.1432021 251.439798,86.5123272 250.6615,86.5115 L250.6615,86.5115 Z M250.6615,89.1255 C249.9945,89.1255 249.457,88.589 249.457,87.922 C249.457,87.255 249.9945,86.717 250.6615,86.717 C251.328,86.717 251.8665,87.255 251.8665,87.922 C251.8665,88.589 251.328,89.1255 250.6615,89.1255 Z M251.286,87.5535 C251.286,87.2625 251.143,87.1035 250.775,87.1035 L250.15,87.1035 L250.15,88.7275 L250.3545,88.7275 L250.3545,88.0165 L250.6465,88.0165 L251.1315,88.7275 L251.3625,88.7275 L250.8775,88.0165 C251.0975,87.978 251.286,87.853 251.286,87.5535 Z M250.6165,87.8335 L250.3555,87.8335 L250.3555,87.284 L250.719,87.284 C250.8935,87.284 251.0835,87.3445 251.0835,87.5525 C251.082,87.823 250.84,87.8335 250.6165,87.8335 L250.6165,87.8335 Z" id="Shape" fill="#707780" fill-rule="nonzero"></path>
        </g>
    </g>
</svg>