<?xml version="1.0" encoding="UTF-8"?>
<svg width="352px" height="92px" viewBox="0 0 352 92" version="1.1" xmlns="http://www.w3.org/2000/svg" xmlns:xlink="http://www.w3.org/1999/xlink">
    <title>Logos</title>
    <g id="Logos" stroke="none" stroke-width="1" fill="none" fill-rule="evenodd">
        <g id="logo-google" transform="translate(80.000000, 19.000000)" fill-rule="nonzero">
            <path d="M23.7129524,0 L25.4196523,0 C31.344799,0.128807537 37.1733401,2.51174698 41.359585,6.73019383 C39.8138946,8.30808616 38.2360022,9.82157473 36.7225137,11.3994671 C34.3717761,9.27414269 31.5380103,7.63184659 28.4466294,7.05221267 C23.8739618,6.08615614 18.9470735,6.95560702 15.1150493,9.56395965 C10.9288043,12.3011198 8.09503849,16.9381912 7.48320269,21.8972814 C6.80696312,26.7919678 8.19164415,31.9442693 11.3796307,35.7440916 C14.4388097,39.4473083 19.1080829,41.765844 23.9383656,41.9268534 C28.4466294,42.1844685 33.1481045,40.7997875 36.4326967,37.6440028 C39.0088475,35.4220728 40.2003172,32.0408749 40.5867398,28.7562827 C35.241227,28.7562827 29.8957142,28.7884846 24.5502014,28.7562827 L24.5502014,22.1226945 L47.0593186,22.1226945 C48.2185864,29.239311 46.5440884,37.2575802 41.1341718,42.3454779 C37.5275608,45.952089 32.5362687,48.0774133 27.448371,48.4960378 C22.5214827,48.9790661 17.433585,48.0452114 13.0541287,45.662272 C7.80522154,42.8607081 3.61897657,38.1270311 1.55805597,32.5561051 C-0.374057089,27.4360055 -0.406258973,21.6396663 1.39704655,16.4873648 C3.03934265,11.7858897 6.19512732,7.63184659 10.2525647,4.733677 C14.1489928,1.86770929 18.8826698,0.289816959 23.7129524,0 Z" id="Path" fill="#3780FF"></path>
            <path d="M152.842509,1.67449799 L159.733712,1.67449799 L159.733712,47.6587888 C157.447378,47.6587888 155.128842,47.6909907 152.842509,47.6265869 C152.874711,32.3306919 152.842509,17.0025949 152.842509,1.67449799 Z" id="Path" fill="#38B137"></path>
            <path d="M62.3874155,17.6144307 C66.6380642,16.8093836 71.2429337,17.7110364 74.7529391,20.2549853 C77.9409256,22.5091172 80.1628557,26.0513244 80.8390952,29.9155506 C81.7085461,34.3916125 80.613682,39.2862989 77.7155125,42.8285062 C74.5919297,46.789338 69.4718301,48.9146623 64.480538,48.5926435 C59.9078704,48.3350284 55.4640104,46.0486946 52.7590521,42.313276 C49.6998731,38.1914348 48.9592297,32.5239032 50.6337277,27.6936205 C52.3082257,22.5091172 57.0419027,18.5482854 62.3874155,17.6144307 M63.353472,23.7327888 C61.6145703,24.1836151 60.0044761,25.1818736 58.8452082,26.5987565 C55.7216254,30.3341751 55.9148367,36.4203312 59.3604384,39.8981347 C61.3247533,41.8946515 64.2873267,42.8285062 67.0244868,42.2810741 C69.5684357,41.8302478 71.7903657,40.1235479 73.0140373,37.869416 C75.1393617,34.0373918 74.5275259,28.7562827 71.2751356,25.7615075 C69.1820131,23.8293944 66.1228341,23.0243473 63.353472,23.7327888 Z" id="Shape" fill="#FA3913"></path>
            <path d="M96.5214129,17.6144307 C101.383897,16.6805761 106.697208,18.0330552 110.336021,21.446455 C116.261168,26.7597659 116.905206,36.7101482 111.84951,42.8285062 C108.790331,46.6927323 103.831241,48.8180567 98.9365542,48.5926435 C94.267281,48.4638359 89.6624115,46.1453003 86.8930495,42.313276 C83.7694667,38.0948292 83.0932271,32.29849 84.8643308,27.3716017 C86.6354344,22.3481077 91.2725058,18.5160835 96.5214129,17.6144307 M97.4874694,23.7327888 C95.7485677,24.1836151 94.1384735,25.1818736 92.9792056,26.5665546 C89.8878247,30.2375694 90.0166323,36.2271199 93.3334264,39.7371253 C95.2977413,41.8302478 98.3569203,42.8607081 101.190686,42.2810741 C103.702433,41.7980459 105.956565,40.1235479 107.180237,37.869416 C109.273359,34.0051899 108.661523,28.7240808 105.376931,25.7293056 C103.283809,23.7971925 100.22463,23.0243473 97.4874694,23.7327888 Z" id="Shape" fill="#FCBD06"></path>
            <path d="M125.470907,19.48214 C129.174124,17.1636044 134.101012,16.5195667 138.094046,18.5160835 C139.349919,19.0635155 140.380379,19.9973702 141.378638,20.9312248 C141.41084,20.0617739 141.378638,19.1601212 141.41084,18.2584684 C143.568366,18.2906703 145.725892,18.2584684 147.91562,18.2906703 L147.91562,46.6927323 C147.883418,50.9755829 146.788554,55.5160486 143.697173,58.6396314 C140.315976,62.085233 135.131472,63.1478952 130.462199,62.4394537 C125.470907,61.6988104 121.123653,58.0599975 119.191539,53.455128 C121.123653,52.5212734 123.152371,51.78063 125.148888,50.9111792 C126.275954,53.5517337 128.562288,55.8058656 131.428256,56.3210957 C134.294223,56.8363259 137.611017,56.1278844 139.478727,53.744945 C141.475243,51.2976018 141.475243,47.9486058 141.378638,44.9538305 C139.897351,46.4029153 138.190651,47.6909907 136.129731,48.174019 C131.653669,49.4298925 126.72678,47.884202 123.281179,44.8572249 C119.803375,41.8302478 117.742455,37.1609745 117.935666,32.5239032 C118.032272,27.274996 120.994845,22.2193002 125.470907,19.48214 M132.136697,23.6039812 C130.172382,23.9260001 128.336875,25.0208641 127.081001,26.5343527 C124.054024,30.1409637 124.054024,35.905101 127.113203,39.4473083 C128.852105,41.5404308 131.653669,42.6996986 134.358627,42.4098817 C136.902576,42.1522666 139.253313,40.5421724 140.509187,38.3202424 C142.634511,34.5526219 142.280291,29.4325223 139.414323,26.1479301 C137.643219,24.1192114 134.809453,23.120953 132.136697,23.6039812 L132.136697,23.6039812 Z" id="Shape" fill="#3780FF"></path>
            <path d="M168.009596,21.1244361 C171.873822,17.5178251 177.831171,16.2941535 182.790261,18.1940647 C187.491736,19.9651683 190.486511,24.4412302 192,29.0460997 C185.012191,31.9442693 178.056584,34.810237 171.068775,37.7084066 C172.034832,39.543914 173.516118,41.218412 175.512635,41.8946515 C178.314199,42.89291 181.663195,42.5386892 184.013933,40.6709799 C184.947787,39.9625385 185.688431,39.0286838 186.396872,38.1270311 C188.167976,39.3185008 189.939079,40.4777686 191.710183,41.6692383 C189.198436,45.4368588 184.979989,48.0774133 180.439524,48.4960378 C175.41603,49.1078736 170.070517,47.1757606 166.818126,43.2471307 C161.472614,37.0643689 161.987844,26.6953621 168.009596,21.1244361 M171.455198,27.0817847 C170.360334,28.6596771 169.909507,30.5917901 169.941709,32.4917013 C174.610982,30.5595882 179.280256,28.6274752 183.949529,26.6631602 C183.176684,24.8598547 181.308974,23.7649906 179.409063,23.4751737 C176.349884,22.9277417 173.161898,24.5700378 171.455198,27.0817847 L171.455198,27.0817847 Z" id="Shape" fill="#FA3913"></path>
        </g>
    </g>
</svg>