<?xml version="1.0" encoding="UTF-8"?>
<svg width="352px" height="92px" viewBox="0 0 352 92" version="1.1" xmlns="http://www.w3.org/2000/svg" xmlns:xlink="http://www.w3.org/1999/xlink">
    <title>Logos</title>
    <g id="Logos" stroke="none" stroke-width="1" fill="none" fill-rule="evenodd">
        <g id="logo-behance" transform="translate(56.000000, 23.000000)" fill="#000000" fill-rule="nonzero">
            <path d="M20.5490196,0 C22.5882353,0 24.4705882,0.158431373 26.1960784,0.62745098 C27.9215686,0.941176471 29.3333333,1.56862745 30.5882353,2.35294118 C31.8431373,3.1372549 32.7843137,4.23529412 33.4117647,5.64862745 C34.0392157,7.05882353 34.3529412,8.78588235 34.3529412,10.6682353 C34.3529412,12.8627451 33.8823529,14.7466667 32.7843137,16.1584314 C31.8431373,17.5686275 30.2745098,18.8235294 28.3921569,19.7647059 C31.0588235,20.5490196 33.0980392,21.9592157 34.3529412,23.8431373 C35.6078431,25.7254902 36.3921569,28.0784314 36.3921569,30.745098 C36.3921569,32.9396078 35.9215686,34.8235294 35.1372549,36.3921569 C34.3529412,37.9607843 33.0980392,39.372549 31.6862745,40.3137255 C30.2745098,41.2564706 28.5490196,42.0407843 26.6666667,42.5098039 C24.7843137,42.9788235 22.9019608,43.2941176 21.0196078,43.2941176 L0,43.2941176 L0,0 L20.5490196,0 Z M19.2941176,17.5686275 C21.0196078,17.5686275 22.4313725,17.0980392 23.5294118,16.3137255 C24.627451,15.5294118 25.0980392,14.1176471 25.0980392,12.3921569 C25.0980392,11.4509804 24.9411765,10.5098039 24.627451,9.88235294 C24.3137255,9.25490196 23.8431373,8.78431373 23.2156863,8.31372549 C22.5882353,8 21.9607843,7.68627451 21.1764706,7.52941176 C20.3921569,7.37254902 19.6078431,7.37254902 18.6666667,7.37254902 L9.56862745,7.37254902 L9.56862745,17.5686275 L19.2941176,17.5686275 Z M19.7647059,36.0784314 C20.7058824,36.0784314 21.6470588,35.9215686 22.4313725,35.7662745 C23.2156863,35.6078431 24,35.2941176 24.627451,34.8235294 C25.254902,34.3529412 25.7254902,33.8823529 26.1960784,33.0980392 C26.5098039,32.3137255 26.8235294,31.3709804 26.8235294,30.2745098 C26.8235294,28.0784314 26.1960784,26.5098039 24.9411765,25.4101961 C23.6862745,24.4690196 21.9607843,24 19.9215686,24 L9.56862745,24 L9.56862745,36.0784314 L19.7647059,36.0784314 Z M50.0392157,35.9215686 C51.2941176,37.1764706 53.1764706,37.8039216 55.6862745,37.8039216 C57.4117647,37.8039216 58.9803922,37.3333333 60.2352941,36.5490196 C61.4901961,35.6062745 62.2745098,34.6666667 62.5882353,33.7239216 L70.2745098,33.7239216 C69.0196078,37.4886275 67.1372549,40.1568627 64.627451,41.8807843 C62.1176471,43.4494118 59.1372549,44.3921569 55.5294118,44.3921569 C53.0196078,44.3921569 50.8235294,43.92 48.7843137,43.1356863 C46.745098,42.3513725 45.1764706,41.254902 43.7647059,39.6862745 C42.3529412,38.2745098 41.254902,36.5490196 40.627451,34.5082353 C39.8431373,32.4690196 39.5294118,30.2745098 39.5294118,27.7631373 C39.5294118,25.4101961 39.8431373,23.2156863 40.627451,21.174902 C41.4117647,19.1356863 42.5098039,17.4117647 43.9215686,15.8431373 C45.3333333,14.4313725 47.0588235,13.1764706 48.9411765,12.3921569 C50.9803922,11.6078431 53.0196078,11.1372549 55.5294118,11.1372549 C58.1960784,11.1372549 60.5490196,11.6078431 62.5882353,12.7058824 C64.627451,13.8039216 66.1960784,15.0588235 67.4509804,16.9411765 C68.7058824,18.6666667 69.6470588,20.7043137 70.2745098,22.9019608 C70.5882353,25.0980392 70.745098,27.2941176 70.5882353,29.8039216 L47.8431373,29.8039216 C47.8431373,32.3137255 48.7843137,34.6666667 50.0392157,35.9215686 L50.0392157,35.9215686 Z M59.9215686,19.4509804 C58.8235294,18.3529412 57.0980392,17.7254902 55.0588235,17.7254902 C53.6470588,17.7254902 52.5490196,18.0376471 51.6078431,18.5098039 C50.6666667,18.9803922 50.0392157,19.6062745 49.4117647,20.2352941 C48.7843137,20.8643137 48.4705882,21.6470588 48.3137255,22.4313725 C48.1568627,23.2156863 48,23.8415686 48,24.4705882 L62.1176471,24.4705882 C61.8039216,22.1176471 61.0196078,20.5490196 59.9215686,19.4509804 Z M82.8235294,0 L82.8235294,16.3137255 L82.9803922,16.3137255 C84.0784314,14.4313725 85.4901961,13.1764706 87.2156863,12.3921569 C88.9411765,11.6078431 90.5098039,11.1372549 92.2352941,11.1372549 C94.5882353,11.1372549 96.4705882,11.4509804 97.8823529,12.0784314 C99.2941176,12.7058824 100.54902,13.6470588 101.333333,14.745098 C102.117647,15.8431373 102.745098,17.254902 103.058824,18.8235294 C103.372549,20.3921569 103.529412,22.1192157 103.529412,24.1568627 L103.529412,43.4509804 L94.9019608,43.4509804 L94.9019608,25.7254902 C94.9019608,23.0588235 94.4313725,21.1764706 93.6470588,19.9215686 C92.8627451,18.6666667 91.4509804,18.0392157 89.4117647,18.0392157 C87.0588235,18.0392157 85.3333333,18.8235294 84.3921569,20.08 C83.2941176,21.4901961 82.8235294,23.8431373 82.8235294,26.9803922 L82.8235294,43.4509804 L74.1960784,43.4509804 L74.1960784,0 L82.8235294,0 Z M109.803922,16.627451 C110.745098,15.2156863 111.843137,14.2745098 113.254902,13.3317647 C114.666667,12.547451 116.235294,11.9215686 117.960784,11.6062745 C119.686275,11.292549 121.410196,11.1356863 123.137255,11.1356863 C124.705882,11.1356863 126.27451,11.292549 128.001569,11.4494118 C129.570196,11.6062745 131.138824,12.0752941 132.392157,12.7043137 C133.803922,13.3301961 134.745098,14.2729412 135.687843,15.3709804 C136.470588,16.4705882 136.941176,18.0392157 136.941176,19.9215686 L136.941176,36.3921569 C136.941176,37.8039216 137.098039,39.2156863 137.254902,40.4721569 C137.413333,41.7270588 137.880784,42.825098 138.352941,43.4509804 L129.568627,43.4509804 C129.253333,43.1372549 129.096471,42.5098039 128.941176,42.0407843 C128.784314,41.5686275 128.784314,40.9427451 128.784314,40.4721569 C127.372549,41.8823529 125.803922,42.825098 123.921569,43.4509804 C122.039216,44.0784314 120.156863,44.2352941 118.27451,44.2352941 C116.705882,44.2352941 115.45098,44.0784314 114.039216,43.6094118 C112.784314,43.2956863 111.686275,42.6666667 110.588235,41.8823529 C109.647059,41.0980392 108.862745,40.1568627 108.235294,38.9035294 C107.764706,37.6470588 107.45098,36.3921569 107.45098,34.6666667 C107.45098,32.9396078 107.764706,31.3709804 108.392157,30.2745098 C109.019608,29.1764706 109.803922,28.2352941 110.745098,27.4509804 C111.686275,26.825098 112.941176,26.1960784 114.196078,25.8823529 C115.45098,25.5701961 116.705882,25.2564706 118.117647,25.0980392 L121.882353,24.627451 C123.137255,24.4705882 124.235294,24.3137255 125.176471,24.1568627 C126.117647,23.8431373 126.901961,23.5294118 127.529412,23.0588235 C128.156863,22.5882353 128.313725,21.9607843 128.313725,21.0196078 C128.313725,20.0784314 128.156863,19.2941176 127.843137,18.8235294 C127.529412,18.3529412 127.058824,17.8823529 126.588235,17.5686275 C126.116078,17.254902 125.490196,17.0980392 124.862745,16.9427451 C124.235294,16.7843137 123.45098,16.7843137 122.666667,16.7843137 C120.941176,16.7843137 119.686275,17.0980392 118.745098,17.8823529 C117.803922,18.6666667 117.176471,19.9215686 117.019608,21.4901961 L108.392157,21.4901961 C108.392157,19.6078431 109.019608,17.8823529 109.803922,16.627451 L109.803922,16.627451 Z M126.900392,28.8627451 C126.431373,29.0196078 125.803922,29.1764706 125.174902,29.3333333 C124.547451,29.4917647 123.92,29.4917647 123.135686,29.6470588 C122.509804,29.8039216 121.72549,29.8039216 121.096471,29.9607843 L119.214118,30.4313725 C118.586667,30.5882353 117.959216,30.9019608 117.64549,31.2156863 C117.174902,31.5294118 116.861176,32 116.547451,32.4705882 C116.078431,33.0980392 116.078431,33.7254902 116.078431,34.5098039 C116.078431,35.2941176 116.235294,35.9215686 116.54902,36.3921569 C116.862745,36.8627451 117.176471,37.334902 117.647059,37.6470588 C118.117647,37.9607843 118.745098,38.1192157 119.372549,38.2745098 C120,38.4298039 120.625882,38.4313725 121.410196,38.4313725 C123.137255,38.4313725 124.390588,38.1192157 125.331765,37.6470588 C126.27451,37.0211765 126.900392,36.3921569 127.372549,35.6078431 C127.843137,34.8235294 128.156863,34.0392157 128.156863,33.254902 C128.313725,32.4705882 128.313725,31.8447059 128.313725,31.372549 L128.313725,28.0784314 C127.843137,28.3921569 127.372549,28.707451 126.900392,28.8627451 Z M149.962353,11.9215686 L149.962353,16.3137255 L150.119216,16.3137255 C151.215686,14.4313725 152.62902,13.1764706 154.352941,12.3921569 C156.08,11.6078431 157.962353,11.1372549 159.686275,11.1372549 C162.039216,11.1372549 163.921569,11.4509804 165.333333,12.0784314 C166.901961,12.7058824 168.001569,13.6470588 168.785882,14.745098 C169.570196,15.8431373 170.196078,17.254902 170.666667,18.8235294 C170.980392,20.3921569 171.138824,22.1192157 171.138824,24.1568627 L171.138824,43.4509804 L162.511373,43.4509804 L162.511373,25.7254902 C162.511373,23.0588235 162.039216,21.1764706 161.254902,19.9215686 C160.470588,18.6666667 159.058824,17.8823529 156.862745,17.8823529 C154.509804,17.8823529 152.782745,18.8235294 151.686275,20.2352941 C150.588235,21.6470588 150.117647,24 150.117647,27.1372549 L150.117647,43.6078431 L141.490196,43.6078431 L141.490196,11.9215686 L149.962353,11.9215686 Z M190.429804,17.5686275 C189.019608,17.5686275 187.92,17.8823529 186.980392,18.5113725 C186.039216,19.1372549 185.254902,19.9215686 184.627451,21.0211765 C184,21.9623529 183.686275,23.0603922 183.37098,24.3152941 C183.058824,25.5717647 183.058824,26.6682353 183.058824,27.9247059 C183.058824,29.0211765 183.215686,30.2776471 183.37098,31.3741176 C183.686275,32.6305882 183.998431,33.5701961 184.627451,34.5113725 C185.254902,35.4541176 185.882353,36.2384314 186.823529,36.8643137 C187.764706,37.4917647 188.861176,37.8070588 190.272941,37.8070588 C192.313725,37.8070588 193.882353,37.1796078 195.135686,36.08 C196.235294,34.9835294 197.019608,33.414902 197.176471,31.3741176 L205.490196,31.3741176 C204.864314,35.6094118 203.295686,38.7466667 200.625882,40.9443137 C197.960784,43.1388235 194.509804,44.2384314 190.272941,44.2384314 C187.92,44.2384314 185.723922,43.7678431 183.841569,42.9835294 C181.800784,42.1992157 180.232157,41.1011765 178.821961,39.6894118 C177.411765,38.2776471 176.310588,36.5521569 175.526275,34.6698039 C174.741961,32.6305882 174.429804,30.5898039 174.429804,28.2368627 C174.429804,25.7270588 174.741961,23.5309804 175.526275,21.4917647 C176.310588,19.452549 177.253333,17.5701961 178.663529,16.0015686 C180.075294,14.4329412 181.800784,13.334902 183.684706,12.3937255 C185.722353,11.6094118 187.918431,11.1388235 190.428235,11.1388235 C192.312157,11.1388235 194.037647,11.452549 195.761569,11.9231373 C197.48549,12.3937255 199.055686,13.1780392 200.310588,14.1176471 C201.722353,15.0603922 202.820392,16.3137255 203.604706,17.8823529 C204.38902,19.2941176 204.861176,21.1764706 205.016471,23.2156863 L196.545882,23.2156863 C196.236863,19.4509804 194.196078,17.5686275 190.429804,17.5686275 L190.429804,17.5686275 Z M46.1176471,2.98039216 L63.6862745,2.98039216 L63.6862745,7.21568627 L46.1176471,7.21568627 L46.1176471,2.98039216 Z M218.509804,35.9215686 C219.766275,37.1764706 221.803922,37.8039216 224.156863,37.8039216 C225.883922,37.8039216 227.452549,37.3333333 228.705882,36.5490196 C229.962353,35.6062745 230.746667,34.6666667 231.058824,33.7239216 L238.589804,33.7239216 C237.333333,37.4886275 235.452549,40.1568627 232.941176,41.8807843 C230.429804,43.4494118 227.45098,44.3921569 223.843137,44.3921569 C221.333333,44.3921569 219.137255,43.92 217.096471,43.1356863 C215.165693,42.4158177 213.442161,41.2310574 212.078431,39.6862745 C210.666667,38.2745098 209.568627,36.5490196 208.941176,34.5082353 C208.156863,32.4690196 207.843137,30.2745098 207.843137,27.7631373 C207.843137,25.4101961 208.156863,23.2156863 208.941176,21.174902 C209.696729,19.2075828 210.814026,17.3991577 212.235294,15.8431373 C213.647059,14.4313725 215.372549,13.1764706 217.254902,12.3921569 C219.294118,11.6078431 221.490196,11.1372549 223.843137,11.1372549 C226.508235,11.1372549 228.861176,11.6078431 230.745098,12.7058824 C232.782745,13.8039216 234.351373,15.0588235 235.607843,16.9411765 C236.862745,18.6666667 237.803922,20.7043137 238.431373,22.9019608 C239.057255,25.0964706 239.215686,27.4494118 239.057255,29.9607843 L216.312157,29.9607843 C216.312157,32.3137255 217.254902,34.6666667 218.509804,35.9215686 L218.509804,35.9215686 Z M228.54902,19.4509804 C227.45098,18.3529412 225.723922,17.7254902 223.686275,17.7254902 C222.27451,17.7254902 221.174902,18.0376471 220.233725,18.5098039 C219.292549,18.9803922 218.508235,19.6062745 218.039216,20.2352941 C217.570196,20.8643137 217.096471,21.6470588 216.941176,22.4313725 C216.785882,23.2156863 216.62902,23.8415686 216.62902,24.4705882 L230.746667,24.4705882 C230.27451,22.1176471 229.490196,20.5490196 228.54902,19.4509804 Z" id="Shape"></path>
        </g>
    </g>
</svg>