<?xml version="1.0" encoding="UTF-8"?>
<svg width="100px" height="100px" viewBox="0 0 100 100" version="1.1" xmlns="http://www.w3.org/2000/svg" xmlns:xlink="http://www.w3.org/1999/xlink">
    <title>logo-github</title>
    <g id="logo-github" stroke="none" stroke-width="1" fill="none" fill-rule="evenodd">
        <g id="github-icon-1-(1)" transform="translate(1.000000, 2.000000)" fill="#161614" fill-rule="nonzero">
            <path d="M49.0001922,0 C21.9416177,0 0,21.9377747 0,49.0001922 C0,70.6501261 14.0400221,89.017368 33.5094369,95.4966687 C35.9581976,95.9501429 36.8574599,94.4336945 36.8574599,93.1393716 C36.8574599,91.9710991 36.8117282,88.1108039 36.790976,84.01647 C23.1586964,86.9805772 20.2822096,78.2350584 20.2822096,78.2350584 C18.0532687,72.5712426 14.8416723,71.0655545 14.8416723,71.0655545 C10.396088,68.0242031 15.176782,68.0864597 15.176782,68.0864597 C20.0973613,68.4323298 22.688313,73.1361638 22.688313,73.1361638 C27.0585744,80.6273269 34.1512182,78.4614112 36.9473862,77.2097455 C37.3870256,74.0423436 38.6571376,71.8810395 40.058296,70.6574278 C29.1749154,69.4180598 17.733531,65.2165061 17.733531,46.4411374 C17.733531,41.0916791 19.6477301,36.7202648 22.7824665,33.2888486 C22.2736531,32.0544765 20.5965672,27.070872 23.2570772,20.3214083 C23.2570772,20.3214083 27.371779,19.0044116 36.7356368,25.3442114 C40.6439694,24.2581791 44.8359156,23.7140101 49.0001922,23.6955637 C53.1644687,23.7140101 57.3594893,24.2581791 61.2755079,25.3442114 C70.628221,19.0044116 74.7371583,20.3214083 74.7371583,20.3214083 C77.4042014,27.070872 75.7263469,32.0544765 75.2175335,33.2888486 C78.3591873,36.7202648 80.2603202,41.0912948 80.2603202,46.4411374 C80.2603202,65.2610849 68.797415,69.4053778 57.8863648,70.6182292 C59.6437694,72.1389049 61.2097926,75.1210742 61.2097926,79.6923246 C61.2097926,86.2484853 61.1529162,91.5253109 61.1529162,93.1393716 C61.1529162,94.443302 62.034885,95.9712794 64.5190013,95.4901356 C83.9776557,89.0035332 98,70.6428244 98,49.0001922 C98,21.9377747 76.0614567,0 49.0001922,0" id="Path"></path>
            <path d="M18.3522542,69.8019756 C18.2446502,70.0452376 17.8611186,70.1182546 17.5125584,69.9514684 C17.1570807,69.7915995 16.9572446,69.4595642 17.0725347,69.2151493 C17.1782172,68.9645856 17.5617488,68.8946429 17.9164579,69.0629664 C18.2727041,69.222451 18.4756146,69.5575607 18.3522542,69.8019756 M20.7625848,71.9525193 C20.5289304,72.1692646 20.0719975,72.068578 19.7618672,71.7261665 C19.4413609,71.3845237 19.3814101,70.9279751 19.6185233,70.7077711 C19.8594795,70.4914101 20.3025776,70.592481 20.6238525,70.9345082 C20.9443588,71.279994 21.0066155,71.7338525 20.7622005,71.9529036 M22.4162284,74.7041085 C22.1157057,74.9127835 21.6245701,74.7171747 21.3213573,74.2813783 C21.0212189,73.8459662 21.0212189,73.323318 21.3278904,73.1138744 C21.6322561,72.9044308 22.1157057,73.0927379 22.4231458,73.5250756 C22.7229,73.9681737 22.7229,74.4908219 22.4158441,74.7044928 M25.2123964,77.8911097 C24.9437706,78.1870209 24.371932,78.107855 23.9530448,77.7035712 C23.5249344,77.3085107 23.4054171,76.7478167 23.6748115,76.4515213 C23.9465117,76.1548416 24.521809,76.2382347 24.9437706,76.6390598 C25.3691909,77.0333518 25.4990843,77.598273 25.2127807,77.8911097 M28.8263551,78.9671502 C28.708375,79.3506817 28.1572886,79.525154 27.6023591,79.3622107 C27.0481983,79.1942716 26.6854189,78.7446404 26.7972503,78.3568815 C26.9125403,77.9706599 27.4659326,77.7888859 28.0250893,77.9633582 C28.5784815,78.1305287 28.9420295,78.5767012 28.8267394,78.9671502 M32.9399041,79.4233145 C32.9537389,79.8275982 32.4829712,80.162708 31.9003721,80.1700097 C31.3143144,80.1826916 30.8404723,79.8556522 30.8343235,79.4582858 C30.8343235,79.050159 31.2943308,78.7181237 31.8800042,78.7085162 C32.4626033,78.6969872 32.9399041,79.0217208 32.9399041,79.4233145 M36.980436,79.2684415 C37.0503786,79.6627335 36.6453262,80.0677858 36.0669545,80.1753899 C35.4981903,80.2791509 34.971699,80.0358889 34.8990663,79.6450557 C34.8283551,79.2407719 35.2410935,78.8361038 35.8087048,78.7311899 C36.3882294,78.6305032 36.9066504,78.8676164 36.980436,79.2684415" id="Shape"></path>
        </g>
    </g>
</svg>