<?xml version="1.0" encoding="UTF-8"?>
<svg width="100px" height="100px" viewBox="0 0 100 100" version="1.1" xmlns="http://www.w3.org/2000/svg" xmlns:xlink="http://www.w3.org/1999/xlink">
    <title>logo-youtube</title>
    <g id="logo-youtube" stroke="none" stroke-width="1" fill="none" fill-rule="evenodd">
        <g id="youtube-3" transform="translate(-10.000000, -10.000000)">
            <polygon id="Path" points="0 0 120 0 120 120 0 120"></polygon>
            <path d="M62.8306799,92.0071058 L43.0779469,91.6513754 C36.6824485,91.527416 30.2710338,91.7748599 24.0009374,90.4906211 C14.4626737,88.571862 13.7869503,79.1637679 13.0798763,71.2721585 C12.1055998,60.1775511 12.4827702,48.881569 14.3213554,37.879575 C15.3592975,31.7062999 19.4440242,28.0226623 25.7609052,27.6218126 C47.0850208,26.1670702 68.5509371,26.3394736 89.8277859,27.0181634 C92.074892,27.0803806 94.3374321,27.4204379 96.5531878,27.8075143 C107.490648,29.6954023 107.757368,40.3568641 108.466371,49.3318125 C109.173445,58.3993743 108.874892,67.5134803 107.523445,76.5192998 C106.439201,83.9758639 104.364763,90.228929 95.6102617,90.8325782 C84.6414515,91.6219291 73.9244097,92.2573993 62.9247314,92.0550747 C62.9252137,92.0071058 62.8620304,92.0071058 62.8306799,92.0071058 Z M51.217979,73.1291754 C59.4838954,68.455762 67.5920947,63.8602388 75.8107441,59.2181715 C67.5293937,54.5447581 59.4366285,49.949235 51.217979,45.3071677 L51.217979,73.1291754 Z" id="Shape" fill="#FF0000" fill-rule="nonzero"></path>
        </g>
    </g>
</svg>