<?xml version="1.0" encoding="UTF-8"?>
<svg width="100px" height="100px" viewBox="0 0 100 100" version="1.1" xmlns="http://www.w3.org/2000/svg" xmlns:xlink="http://www.w3.org/1999/xlink">
    <title>logo-dribbble</title>
    <g id="logo-dribbble" stroke="none" stroke-width="1" fill="none" fill-rule="evenodd">
        <g id="dribbble-icon" transform="translate(2.000000, 2.000000)" fill="#EA4C89" fill-rule="nonzero">
            <path d="M0,48.5 C0,39.705301 2.166398,31.589699 6.499,24.153 C10.831699,16.716301 16.716398,10.831699 24.153,6.499 C31.589699,2.166301 39.705398,0 48.5,0 C57.294699,0 65.410398,2.166301 72.847,6.499 C80.283699,10.831699 86.168398,16.716301 90.501,24.153 C94.833699,31.589699 97,39.705301 97,48.5 C97,57.294699 94.833699,65.410301 90.501,72.847 C86.168398,80.283699 80.283699,86.168301 72.847,90.501 C65.410398,94.833699 57.294699,97 48.5,97 C39.705398,97 31.589699,94.833699 24.153,90.501 C16.716398,86.168301 10.831699,80.283699 6.499,72.847 C2.166398,65.410301 0,57.294699 0,48.5 Z M8.051,48.5 C8.051,58.588 11.446,67.479699 18.236,75.175 C21.34,69.096301 26.254699,63.308699 32.98,57.812 C39.705398,52.315301 46.269,48.855699 52.671,47.433 C51.701,45.169699 50.763398,43.132699 49.858,41.322 C38.735398,44.878699 26.707398,46.657 13.774,46.657 C11.252,46.657 9.376699,46.624699 8.148,46.56 C8.148,46.818699 8.131898,47.142 8.0995,47.53 C8.067199,47.918 8.051,48.241301 8.051,48.5 Z M9.312,38.509 C10.734699,38.638301 12.836398,38.703 15.617,38.703 C26.416398,38.703 36.666,37.248 46.366,34.338 C41.451398,25.608 36.051699,18.333 30.167,12.513 C25.058398,15.099699 20.677199,18.688699 17.0235,23.28 C13.369898,27.871301 10.799398,32.947699 9.312,38.509 Z M23.765,80.413 C31.072398,86.103699 39.317398,88.949 48.5,88.949 C53.285398,88.949 58.038398,88.043699 62.759,86.233 C61.465699,75.175 58.943699,64.472699 55.193,54.126 C49.243699,55.419301 43.245898,58.685 37.1995,63.923 C31.153199,69.161 26.675,74.657699 23.765,80.413 Z M38.606,9.409 C44.296699,15.293699 49.567,22.633301 54.417,31.428 C63.211699,27.742 69.84,23.053699 74.302,17.363 C66.800699,11.155 58.2,8.051 48.5,8.051 C45.202,8.051 41.904,8.503699 38.606,9.409 Z M57.909,38.315 C58.879,40.384301 59.978398,43.003301 61.207,46.172 C65.992398,45.719301 71.198,45.493 76.824,45.493 C80.833398,45.493 84.810398,45.59 88.755,45.784 C88.237699,36.989301 85.069,29.164699 79.249,22.31 C75.045699,28.582699 67.932398,33.917699 57.909,38.315 Z M63.632,52.962 C66.93,62.532699 69.161,72.362 70.325,82.45 C75.433699,79.152 79.604699,74.916301 82.838,69.743 C86.071398,64.569699 88.011398,58.976 88.658,52.962 C83.937398,52.638699 79.637,52.477 75.757,52.477 C72.200398,52.477 68.158699,52.638699 63.632,52.962 Z" id="Shape"></path>
        </g>
    </g>
</svg>