<svg height="100" viewBox="0 0 100 100" width="100" xmlns="http://www.w3.org/2000/svg"><g fill="none" transform="translate(1 10)"><path d="m62.182672 21.7163058h2.9905151l8.5196816-8.5196816.4190008-3.61490836c-15.8521945-13.99133832-40.051541-12.48375723-54.0428793 3.36843726-3.8901343 4.4036156-6.7122275 9.6411248-8.2485635 15.3099583.9489134-.3902458 2.0005231-.4518635 2.990515-.1807454l17.0352555-2.8097696s.8667564-1.4336398 1.3145121-1.3432671c7.5789839-8.3225048 20.3338592-9.2919575 29.0835805-2.2100235z" fill="#ea4335"/><path d="m85.8274587 28.2601114c-1.9594446-7.2092774-5.9769223-13.6914652-11.5677066-18.64964061l-11.9538445 11.95384451c5.048548 4.1242818 7.9240433 10.3394594 7.8008078 16.8586179v2.1237586c5.8783338 0 10.6393324 4.7651065 10.6393324 10.6393325 0 5.8783338-4.7651064 10.6393324-10.6393324 10.6393324h-21.2827727l-2.1237587 2.1525136v12.763091l2.1237587 2.1237587h21.2827727c12.2003155.0944805 23.0245012-7.8131314 26.6476252-19.462995 3.6149084-11.6539715-.82157-24.3061506-10.9268819-31.1416136z" fill="#4285f4"/><path d="m27.512415 78.7455923h21.2827727v-17.0352554h-21.2827727c-1.5157968 0-3.0151621-.3245202-4.3953999-.9571292l-2.990515.9242664-8.5771916 8.5196816-.7476287 2.9905151c4.8102927 3.6313397 10.6804109 5.5825686 16.7107352 5.5579215z" fill="#34a853"/><path d="m27.512415 23.4784201c-11.8223933.069987-22.29330386 7.6407552-26.06431049 18.8428631s-.01232355 23.5667375 9.35768309 30.771907l12.3440903-12.3440903c-5.3566368-2.4195239-7.7350822-8.7209663-5.3155583-14.0776032 2.4195238-5.3566368 8.7209663-7.7350822 14.0776032-5.3155583 2.3579061 1.068041 4.2475172 2.9576522 5.3155583 5.3155583l12.3440903-12.3440903c-5.2539406-6.864218-13.4162392-10.8775878-22.0591564-10.8489863z" fill="#fbbc05"/></g></svg>